<svg width="28" height="28" viewBox="0 0 28 28" fill="none" xmlns="http://www.w3.org/2000/svg">
<path d="M27.5625 14C27.5625 21.4904 21.4904 27.5625 14 27.5625C6.50962 27.5625 0.4375 21.4904 0.4375 14C0.4375 6.50962 6.50962 0.4375 14 0.4375C21.4904 0.4375 27.5625 6.50962 27.5625 14ZM19.816 12.0679C20.086 10.2633 18.7118 9.2931 16.8328 8.64593L17.4423 6.20129L15.9541 5.83045L15.3607 8.21067C14.9694 8.11316 14.5676 8.02123 14.1683 7.93012L14.766 5.53427L13.2786 5.16343L12.6687 7.60719C12.3448 7.53342 12.0269 7.46052 11.7184 7.38385L11.7201 7.37619L9.66766 6.86377L9.27177 8.4531C9.27177 8.4531 10.376 8.70614 10.3527 8.72178C10.9554 8.87223 11.0644 9.27106 11.0461 9.58721L10.3518 12.3722C10.3934 12.3828 10.4472 12.398 10.5065 12.4218C10.4569 12.4095 10.4039 12.3959 10.3492 12.3828L9.37601 16.2841C9.30223 16.4672 9.11531 16.7418 8.694 16.6376C8.70882 16.6592 7.61228 16.3676 7.61228 16.3676L6.87345 18.0709L8.81016 18.5537C9.17044 18.644 9.52355 18.7385 9.87109 18.8274L9.2552 21.3L10.7417 21.6709L11.3516 19.2245C11.7459 19.3314 12.1412 19.4339 12.5377 19.5322L11.9298 21.9671L13.418 22.3379L14.0339 19.87C16.5716 20.3502 18.4799 20.1565 19.2831 17.8615C19.9304 16.0136 19.2509 14.9477 17.9157 14.2526C18.8881 14.0285 19.6206 13.389 19.816 12.0679ZM16.4157 16.8355C15.9557 18.6834 12.8441 17.6844 11.8353 17.4339L12.6526 14.1582C13.6613 14.4099 16.8963 14.9084 16.4157 16.8355ZM16.876 12.0412C16.4563 13.7221 13.8665 12.8681 13.0263 12.6587L13.7673 9.68773C14.6074 9.89707 17.313 10.2878 16.876 12.0412Z" fill="#FF9900"/>
</svg>
