<svg width="105" height="105" viewBox="0 0 105 105" fill="none" xmlns="http://www.w3.org/2000/svg">
<g clip-path="url(#clip0)">
<path d="M73.6275 77.3434L21.2703 63.3144C20.4704 63.1 19.829 62.5045 19.5557 61.723C15.3621 49.7418 20.0536 30.1131 20.7887 27.2097C20.8165 27.0956 20.846 26.9806 20.8765 26.8666C21.2339 25.533 22.6037 24.7406 23.9379 25.0954L23.9429 25.0968C25.2741 25.4534 26.0673 26.8201 25.7155 28.1532C25.7111 28.1695 25.6735 28.3124 25.6113 28.567C23.9809 35.5039 28.1623 42.5518 35.0928 44.4088C42.158 46.302 49.446 42.0942 51.3391 35.029C51.6969 33.6936 53.07 32.9013 54.4049 33.259L59.9592 34.7473C61.2946 35.1051 62.087 36.4776 61.7292 37.8131C59.8361 44.8783 64.0444 52.1664 71.1096 54.0595C78.0464 55.9182 85.198 51.8962 87.2474 45.0622C87.3165 44.8216 87.354 44.6866 87.3582 44.671C87.7203 43.3399 89.09 42.5529 90.4217 42.9097L90.4261 42.9109C91.759 43.2707 92.5491 44.6419 92.1917 45.9755C92.161 46.0901 92.1292 46.2038 92.0968 46.3173C91.2811 49.1985 85.5296 68.5438 75.9079 76.8232C75.2806 77.3627 74.4267 77.5576 73.6275 77.3434Z" fill="#FFF780"/>
<path d="M90.4257 42.9109C90.4245 42.9106 90.4232 42.9102 90.4214 42.9097C89.0903 42.553 87.7199 43.34 87.3581 44.6703C87.3537 44.6866 87.3168 44.8218 87.247 45.0622C85.1979 51.8956 78.0461 55.9182 71.1093 54.0595C64.0441 52.1664 59.8364 44.8784 61.7295 37.8133C62.0873 36.4778 61.2943 35.1051 59.9595 34.7475L57.1826 34.0034L47.4494 70.3284L73.6273 77.3428C74.4272 77.5571 75.2804 77.3621 75.9077 76.8226C85.53 68.5434 91.2816 49.198 92.0966 46.3167C92.1295 46.204 92.1615 46.0897 92.192 45.9757C92.5487 44.6419 91.7587 43.2707 90.4257 42.9109V42.9109Z" fill="#FFC02E"/>
<path d="M59.3926 25.7528C55.0848 24.5985 50.641 27.1641 49.4867 31.4719C48.3325 35.7797 50.8983 40.2228 55.206 41.3771C59.5138 42.5314 63.9574 39.9664 65.1117 35.6586C66.266 31.3508 63.7003 26.907 59.3926 25.7528Z" fill="#FFC02E"/>
<path d="M59.3936 25.7529L55.2069 41.3779C59.5148 42.5315 63.9578 39.9664 65.1121 35.6586C66.2663 31.3508 63.7005 26.9076 59.3936 25.7529V25.7529Z" fill="#FFA73B"/>
<path d="M24.5381 22.8756C20.2303 21.7213 15.7865 24.2869 14.6322 28.5947C13.478 32.9025 16.0436 37.3463 20.3514 38.5005C24.6591 39.6548 29.1023 37.089 30.2566 32.7812C31.4108 28.4735 28.8458 24.0298 24.5381 22.8756Z" fill="#FFC02E"/>
<path d="M91.0169 40.6884C86.7092 39.5341 82.266 42.0999 81.1117 46.4077C79.9576 50.7148 82.5226 55.1585 86.8304 56.3127C91.1382 57.467 95.582 54.9014 96.7361 50.5942C97.8903 46.2865 95.3247 41.8427 91.0169 40.6884Z" fill="#FFA73B"/>
<path d="M71.5018 85.2756L19.1446 71.2465C17.8091 70.8887 17.0167 69.5162 17.3746 68.1807L19.3066 60.9702L76.4996 76.295L74.5676 83.5055C74.2097 84.841 72.8373 85.6334 71.5018 85.2756V85.2756Z" fill="#FFC02E"/>
<path d="M45.3234 78.261L71.5013 85.2753C72.8368 85.6332 74.2093 84.8408 74.5671 83.5053L76.4992 76.2948L47.9033 68.6326L45.3234 78.261Z" fill="#FFA73B"/>
</g>
<defs>
<clipPath id="clip0">
<rect width="85" height="85" fill="white" transform="translate(22.2939) rotate(15)"/>
</clipPath>
</defs>
</svg>
