<svg width="32" height="32" viewBox="0 0 32 32" fill="none" xmlns="http://www.w3.org/2000/svg">
<path d="M16 32C24.8366 32 32 24.8366 32 16C32 7.16344 24.8366 0 16 0C7.16344 0 0 7.16344 0 16C0 24.8366 7.16344 32 16 32Z" fill="#EAB14D"/>
<path d="M15.9998 0C15.7142 0 15.4304 0.0078125 15.1484 0.0225625C23.5892 0.465187 30.2971 7.44906 30.2971 16C30.2971 24.5509 23.5892 31.5348 15.1484 31.9774C15.4304 31.9922 15.7142 32 15.9998 32C24.8364 32 31.9998 24.8366 31.9998 16C31.9998 7.16344 24.8364 0 15.9998 0Z" fill="#E49542"/>
<path d="M16.0002 28.4681C22.886 28.4681 28.4681 22.886 28.4681 16.0002C28.4681 9.11431 22.886 3.53223 16.0002 3.53223C9.11431 3.53223 3.53223 9.11431 3.53223 16.0002C3.53223 22.886 9.11431 28.4681 16.0002 28.4681Z" fill="#F4FBFF"/>
<path d="M15.9999 3.53223C15.6546 3.53223 15.3128 3.54691 14.9746 3.57441C21.3808 4.09591 26.4173 9.4596 26.4173 16.0002C26.4173 22.5407 21.3808 27.9044 14.9746 28.4259C15.3128 28.4535 15.6546 28.4682 15.9999 28.4682C22.8858 28.4682 28.4679 22.886 28.4679 16.0002C28.4679 9.11441 22.8858 3.53223 15.9999 3.53223Z" fill="#DAF1F4"/>
<path d="M15.9995 7.36932C15.7328 7.36932 15.5166 7.15314 15.5166 6.88645V6.1777C15.5166 5.91101 15.7328 5.69482 15.9995 5.69482C16.2662 5.69482 16.4824 5.91101 16.4824 6.1777V6.88645C16.4824 7.15314 16.2662 7.36932 15.9995 7.36932Z" fill="#2B4D66"/>
<path d="M22.4175 10.0495C22.2939 10.0495 22.1703 10.0023 22.076 9.90803C21.8874 9.7194 21.8874 9.41372 22.076 9.22509L22.5772 8.72397C22.7658 8.53534 23.0716 8.5354 23.2602 8.72397C23.4487 8.91259 23.4487 9.21828 23.2601 9.4069L22.7589 9.90809C22.6646 10.0023 22.5411 10.0495 22.4175 10.0495Z" fill="#2B4D66"/>
<path d="M25.7698 16.4828H25.061C24.7943 16.4828 24.5781 16.2667 24.5781 16C24.5781 15.7333 24.7943 15.5171 25.061 15.5171H25.7698C26.0365 15.5171 26.2526 15.7333 26.2526 16C26.2526 16.2667 26.0364 16.4828 25.7698 16.4828Z" fill="#2B4D66"/>
<path d="M22.8815 23.402C22.7579 23.402 22.6343 23.3548 22.54 23.2606L22.0389 22.7594C21.8503 22.5708 21.8503 22.2651 22.0389 22.0764C22.2275 21.8879 22.5332 21.8879 22.7219 22.0764L23.223 22.5776C23.4116 22.7662 23.4116 23.0719 23.223 23.2606C23.1287 23.3548 23.0051 23.402 22.8815 23.402Z" fill="#2B4D66"/>
<path d="M15.9467 26.2526C15.6801 26.2526 15.4639 26.0364 15.4639 25.7697V25.061C15.4639 24.7942 15.6801 24.5781 15.9467 24.5781C16.2134 24.5781 16.4296 24.7943 16.4296 25.061V25.7697C16.4296 26.0364 16.2134 26.2526 15.9467 26.2526Z" fill="#2B4D66"/>
<path d="M9.0278 23.3647C8.90424 23.3647 8.78062 23.3175 8.68637 23.2232C8.49774 23.0346 8.4978 22.7289 8.68637 22.5402L9.18755 22.0391C9.37618 21.8506 9.68187 21.8505 9.87049 22.0392C10.0591 22.2277 10.0591 22.5335 9.87043 22.7221L9.36924 23.2232C9.27499 23.3175 9.15137 23.3647 9.0278 23.3647Z" fill="#2B4D66"/>
<path d="M6.88596 16.4301H6.17721C5.91052 16.4301 5.69434 16.2139 5.69434 15.9472C5.69434 15.6805 5.91052 15.4644 6.17721 15.4644H6.88596C7.15265 15.4644 7.36884 15.6805 7.36884 15.9472C7.3689 16.2139 7.15265 16.4301 6.88596 16.4301Z" fill="#2B4D66"/>
<path d="M9.56611 10.0124C9.44255 10.0124 9.31899 9.96524 9.22467 9.87093L8.72348 9.3698C8.53492 9.18118 8.53486 8.87549 8.72342 8.68686C8.91205 8.4983 9.21773 8.49824 9.40636 8.6868L9.90755 9.18799C10.0961 9.37655 10.0962 9.6823 9.90761 9.87093C9.81324 9.96518 9.68967 10.0124 9.56611 10.0124Z" fill="#2B4D66"/>
<path d="M16.0002 16.4829H11.8989C11.6322 16.4829 11.416 16.2666 11.416 15.9999C11.416 15.7332 11.6322 15.5171 11.8989 15.5171H15.5172V9.3735C15.5172 9.10681 15.7334 8.89062 16.0001 8.89062C16.2668 8.89062 16.483 9.10681 16.483 9.3735V15.9999C16.483 16.2666 16.2668 16.4829 16.0002 16.4829Z" fill="#2B4D66"/>
<path d="M20.9537 19.0306C20.8793 19.0306 20.804 19.0133 20.7333 18.977L15.7788 16.4293C15.5416 16.3074 15.4482 16.0162 15.5701 15.779C15.6921 15.5419 15.9832 15.4484 16.2205 15.5704L21.175 18.1181C21.4121 18.2401 21.5056 18.5312 21.3836 18.7683C21.2979 18.9349 21.1289 19.0306 20.9537 19.0306Z" fill="#DA4A54"/>
<path d="M15.9998 17.2889C16.7116 17.2889 17.2887 16.7119 17.2887 16C17.2887 15.2882 16.7116 14.7112 15.9998 14.7112C15.288 14.7112 14.7109 15.2882 14.7109 16C14.7109 16.7119 15.288 17.2889 15.9998 17.2889Z" fill="#365E7D"/>
</svg>
