<svg width="33" height="32" viewBox="0 0 33 32" fill="none" xmlns="http://www.w3.org/2000/svg">
<g clip-path="url(#clip0)">
<path d="M30.2505 2.8125V16C30.2505 16.5249 29.8367 16.9375 29.31 16.9375H2.91505C2.38834 16.9375 1.97461 16.5249 1.97461 16V2.8125C1.97461 1.25619 3.23473 0 4.79593 0H27.4292C28.9903 0 30.2505 1.25619 30.2505 2.8125Z" fill="#5C5F66"/>
<path d="M30.3128 2.8125V16C30.3128 16.5249 29.8991 16.9375 29.3724 16.9375H16.1436V0H27.4915C29.0527 0 30.3128 1.25619 30.3128 2.8125Z" fill="#53565C"/>
<path d="M17.084 2.8125V4.6875C17.084 5.21256 16.6703 5.625 16.1436 5.625C15.6169 5.625 15.2031 5.21256 15.2031 4.6875V2.8125C15.2031 2.28744 15.6169 1.875 16.1436 1.875C16.6703 1.875 17.084 2.28744 17.084 2.8125Z" fill="#F9BC35"/>
<path d="M9.77356 7.22532L7.89269 5.35033C7.52535 4.98414 7.52535 4.39083 7.89269 4.02464C8.26002 3.65845 8.8552 3.65845 9.22253 4.02464L11.1034 5.89964C11.4707 6.26582 11.4707 6.85914 11.1034 7.22532C10.736 7.59157 10.1409 7.59157 9.77356 7.22532Z" fill="#F9BC35"/>
<path d="M21.1212 7.22532C20.7539 6.85914 20.7539 6.26582 21.1212 5.89964L23.0648 4.02464C23.4321 3.65845 24.0273 3.65845 24.3946 4.02464C24.7619 4.39083 24.7619 4.98414 24.3946 5.35033L22.451 7.22532C22.0836 7.59157 21.4885 7.59157 21.1212 7.22532Z" fill="#F39E31"/>
<path d="M17.084 2.8125V4.6875C17.084 5.21256 16.6703 5.625 16.1436 5.625V1.875C16.6703 1.875 17.084 2.28744 17.084 2.8125Z" fill="#F39E31"/>
<path d="M27.297 15.625L27.1278 16.2438H5.0963L4.92708 15.625C4.51323 14.0499 5.26564 12.625 7.63555 11.9875C7.95523 11.9125 8.21862 11.5875 8.29379 11.2688C9.06501 8.39999 10.6073 8.21255 12.6574 8.75624C12.9771 8.84999 13.3345 8.75624 13.5602 8.51249C14.5194 7.55624 15.3282 7.1438 16.0806 7.1438C16.9646 7.1438 17.7546 7.66874 18.6011 8.51249C18.8268 8.75624 19.1653 8.84999 19.5038 8.75624C22.3628 8.00617 23.366 9.22499 23.9302 11.2688C24.0053 11.5875 24.2687 11.9125 24.5884 11.9875C26.9584 12.625 27.7108 14.0499 27.297 15.625Z" fill="#F9BC35"/>
<path d="M27.3599 15.625L27.1906 16.2438H16.1436V7.1438C17.0275 7.1438 17.8175 7.66873 18.664 8.51248C18.8897 8.75623 19.2283 8.84998 19.5668 8.75623C22.4258 8.00617 23.4289 9.22498 23.9931 11.2688C24.0683 11.5875 24.3316 11.9125 24.6513 11.9875C27.0213 12.625 27.7737 14.05 27.3599 15.625Z" fill="#F39E31"/>
<path d="M32.1314 17.875V24.5938L31.1909 26.375L26.4887 31.0625L24.7019 32H7.52322L5.73638 31.0625L1.03419 26.375L0.09375 24.5938V17.875C0.09375 16.3187 1.35388 15.0625 2.91507 15.0625H29.3101C30.8712 15.0625 32.1314 16.3187 32.1314 17.875Z" fill="#C4CAD9"/>
<path d="M32.1937 17.875V24.5938L31.2533 26.375L26.5511 31.0625L24.7642 32H16.1436V15.0625H29.3724C30.9336 15.0625 32.1937 16.3187 32.1937 17.875Z" fill="#B8BFCC"/>
<path d="M28.3696 15.0625V18.8125L26.4887 20.6875H5.73635L3.85547 18.8125V15.0625H28.3696Z" fill="#C4CAD9"/>
<path d="M28.432 15.0625V18.8125L26.5511 20.6875H16.1436V15.0625H28.432Z" fill="#B8BFCC"/>
<path d="M28.3696 18.8125H3.85547V32H28.3696V18.8125Z" fill="#A66342"/>
<path d="M28.432 18.8125H16.1436V32H28.432V18.8125Z" fill="#995B3D"/>
<path d="M1.03419 24.5C0.712183 24.5 0.403593 24.55 0.09375 24.5947V29.1875C0.09375 30.7408 1.35688 32 2.91507 32H7.52221C7.5671 31.6911 7.61726 31.3835 7.61726 31.0625C7.61726 27.4443 4.66372 24.5 1.03419 24.5Z" fill="#E6EEFF"/>
<path d="M31.254 24.5C27.6244 24.5 24.6709 27.4443 24.6709 31.0625C24.6709 31.3835 24.7211 31.6911 24.7659 32H29.3731C30.9313 32 32.1944 30.7408 32.1944 29.1875V24.5947C31.8846 24.55 31.576 24.5 31.254 24.5Z" fill="#DAE2F2"/>
<path d="M11.4414 15.0623V19.4685C11.4414 21.9248 13.2094 24.2185 15.6546 24.481C15.8239 24.4998 15.9743 24.4998 16.1436 24.4998C18.7204 24.4998 20.8458 22.3373 20.8458 19.7498V15.0623H11.4414V15.0623Z" fill="#E6EEFF"/>
<path d="M20.8457 15.0625V19.75C20.8457 22.3375 18.7204 24.5 16.1436 24.5V15.0625H20.8457Z" fill="#DAE2F2"/>
<path d="M16.1438 18.8125C15.6171 18.8125 15.1846 19.2437 15.1846 19.75C15.1846 20.2749 15.6171 20.7062 16.1438 20.7062C16.6517 20.7062 17.0843 20.2749 17.0843 19.75C17.0843 19.2437 16.6517 18.8125 16.1438 18.8125Z" fill="#7F838C"/>
<path d="M17.084 19.75C17.084 20.2749 16.6515 20.7062 16.1436 20.7062V18.8125C16.6515 18.8125 17.084 19.2437 17.084 19.75Z" fill="#757982"/>
</g>
<defs>
<clipPath id="clip0">
<rect width="32.1003" height="32" fill="white" transform="translate(0.09375)"/>
</clipPath>
</defs>
</svg>
