<svg width="32" height="32" viewBox="0 0 32 32" fill="none" xmlns="http://www.w3.org/2000/svg">
<path fill-rule="evenodd" clip-rule="evenodd" d="M3.15625 9.33287C3.15625 9.33287 31.5311 11.9782 31.5311 12.1246V7.03768C31.5311 6.89124 31.4904 6.82693 31.3416 6.83943C30.0748 6.95374 29.0632 6.09105 28.987 4.82286C28.9781 4.70317 28.9658 4.66567 28.8418 4.68711L3.15625 9.33287Z" fill="#7E707D"/>
<path fill-rule="evenodd" clip-rule="evenodd" d="M3.15637 27.3178H28.8419C28.9659 27.3178 28.9783 27.2784 28.9871 27.1588C29.0633 25.8764 30.0749 24.8475 31.3417 24.7546C31.4905 24.7439 31.5312 24.6724 31.5312 24.526V12.1248C31.5312 11.9783 31.4905 11.9068 31.3417 11.8961C30.0749 11.8033 29.0633 10.7744 28.9871 9.49195C28.9783 9.37226 28.9659 9.33301 28.8419 9.33301H3.15637C3.03237 9.33301 3.01994 9.37232 3.01288 9.49195C2.93494 10.7744 1.92506 11.8033 0.656563 11.8961C0.50775 11.9068 0.46875 11.9783 0.46875 12.1248V24.526C0.46875 24.6724 0.50775 24.7439 0.656563 24.7546C1.92506 24.8475 2.93494 25.8763 3.01288 27.1588C3.01994 27.2784 3.03231 27.3178 3.15637 27.3178Z" fill="#FE8D94"/>
<path fill-rule="evenodd" clip-rule="evenodd" d="M28.8416 27.3176C28.9656 27.3176 28.978 27.2783 28.9868 27.1586C29.063 25.8762 30.0747 24.8473 31.3414 24.7545C31.4902 24.7438 31.531 24.6723 31.531 24.5258V19.4389V12.1245C31.531 11.9781 31.4902 11.9066 31.3414 11.8959C30.0747 11.803 29.063 10.7742 28.9868 9.4917C28.978 9.37201 28.9656 9.33276 28.8416 9.33276H24.3168C25.2292 10.801 25.8351 12.4639 26.0459 14.2429C26.1008 14.7091 26.1292 14.1768 26.1292 15.6593C26.1292 17.1436 25.362 20.4659 24.0439 22.4074C22.5114 24.658 20.2366 26.403 17.5508 27.3175H28.8416V27.3176Z" fill="#FF6D75"/>
<path fill-rule="evenodd" clip-rule="evenodd" d="M5.24018 20.1856L6.32799 19.8052L7.4158 20.1856C7.52387 20.2231 7.56818 20.1892 7.56637 20.0749L7.54512 18.9139L8.2378 17.9886C8.30693 17.8975 8.29093 17.8439 8.18112 17.81L7.07912 17.4724L6.4218 16.5222C6.35624 16.4275 6.29955 16.4275 6.23399 16.5222L5.57668 17.4724L4.47468 17.81C4.36662 17.8439 4.34887 17.8975 4.41799 17.9886L5.11249 18.9139L5.08943 20.0749C5.0878 20.1892 5.13212 20.2231 5.24018 20.1856Z" fill="#FDE588"/>
<path fill-rule="evenodd" clip-rule="evenodd" d="M24.5844 20.1856L25.6704 19.8052L26.7582 20.1856C26.8663 20.2231 26.9106 20.1892 26.9088 20.0749L26.8875 18.9139L27.582 17.9886C27.6511 17.8975 27.6334 17.8439 27.5236 17.81L26.4234 17.4724L25.7643 16.5222C25.6988 16.4275 25.6438 16.4275 25.5783 16.5222L24.9193 17.4724L23.8191 17.81C23.7093 17.8439 23.6915 17.8975 23.7607 17.9886L24.4552 18.9139L24.4322 20.0749C24.4303 20.1892 24.4746 20.2231 24.5844 20.1856Z" fill="#FDE588"/>
<path d="M4.53125 11.7441C4.79013 11.7441 5 11.5333 5 11.2744C5 11.0155 4.79013 10.8057 4.53125 10.8057C4.27237 10.8057 4.0625 11.0155 4.0625 11.2744V11.2762C4.0625 11.5351 4.27231 11.7441 4.53125 11.7441Z" fill="#FFFEFE"/>
<path d="M4.0625 25.3761C4.0625 25.635 4.27237 25.8449 4.53125 25.8449C4.79013 25.8449 5 25.635 5 25.3761V25.3744C5 25.1155 4.79013 24.9065 4.53125 24.9065C4.27237 24.9065 4.0625 25.1172 4.0625 25.3761Z" fill="#FFFEFE"/>
<path d="M27.4678 24.9065C27.2089 24.9065 26.999 25.1172 26.999 25.3761C26.999 25.635 27.2089 25.8449 27.4678 25.8449C27.7266 25.8449 27.9365 25.635 27.9365 25.3761V25.3744C27.9365 25.1154 27.7266 24.9065 27.4678 24.9065Z" fill="#FFFEFE"/>
<path d="M27.9365 11.2744C27.9365 11.0155 27.7266 10.8057 27.4678 10.8057C27.2089 10.8057 26.999 11.0155 26.999 11.2744V11.2762C26.999 11.5351 27.2089 11.7441 27.4678 11.7441C27.7266 11.7441 27.9365 11.5333 27.9365 11.2744Z" fill="#FFFEFE"/>
<path d="M15.5303 16.2131V20.4374C15.5303 20.6962 15.7401 20.9061 15.999 20.9061C16.2579 20.9061 16.4678 20.6962 16.4678 20.4374V16.2131C16.4678 15.9543 16.2579 15.7444 15.999 15.7444C15.7401 15.7444 15.5303 15.9543 15.5303 16.2131Z" fill="#FFFEFE"/>
<path d="M13.4677 16.0752L12.4477 19.1694L11.3779 16.0605C11.2937 15.8157 11.0268 15.6855 10.7822 15.7698C10.5373 15.8541 10.4072 16.1208 10.4915 16.3656L11.924 20.5283C12.0033 20.7542 12.2164 20.9051 12.4552 20.9051H12.4604C12.7015 20.9029 12.9144 20.7475 12.9903 20.5179L14.3581 16.3687C14.4392 16.1228 14.3055 15.8578 14.0597 15.7767C13.8138 15.6959 13.5487 15.8294 13.4677 16.0752Z" fill="#FFFEFE"/>
<path d="M18.3486 15.7444C18.0936 15.7444 17.8799 15.9581 17.8799 16.2131V20.4374C17.8799 20.6962 18.0898 20.9061 18.3486 20.9061C18.6075 20.9061 18.8174 20.6962 18.8174 20.4374V19.0691C19.0654 19.0678 19.3532 19.0664 19.5144 19.0664C20.4371 19.0664 21.1878 18.3217 21.1878 17.4063C21.1878 16.4899 20.4371 15.7444 19.5144 15.7444H18.3486V15.7444ZM20.2504 17.4063C20.2504 17.798 19.9133 18.1289 19.5144 18.1289C19.3541 18.1289 19.0693 18.1303 18.8219 18.1316C18.8206 17.8733 18.8192 17.5721 18.8192 17.4063C18.8192 17.2653 18.8188 16.9521 18.8183 16.6819H19.5144C19.9133 16.6819 20.2504 17.0136 20.2504 17.4063Z" fill="#FFFEFE"/>
</svg>
