<svg width="33" height="32" viewBox="0 0 33 32" fill="none" xmlns="http://www.w3.org/2000/svg">
<g clip-path="url(#clip0)">
<path d="M16.0012 30.722C24.1319 30.722 30.7232 24.1307 30.7232 16C30.7232 7.86931 24.1319 1.27808 16.0012 1.27808C7.87053 1.27808 1.2793 7.86931 1.2793 16C1.2793 24.1307 7.87053 30.722 16.0012 30.722Z" fill="#DCF5FF"/>
<path d="M23.1462 3.125C25.832 5.792 27.4954 9.48725 27.4954 13.5713C27.4954 21.702 20.9042 28.2933 12.7735 28.2933C10.1814 28.2933 7.74636 27.6225 5.63086 26.4464C8.29205 29.0889 11.957 30.722 16.0036 30.722C24.1343 30.722 30.7255 24.1308 30.7255 16.0001C30.7255 10.4614 27.6664 5.63806 23.1462 3.125Z" fill="#97E4F9"/>
<path d="M16.002 32C11.7282 32 7.71027 30.3357 4.68827 27.3137C1.66627 24.2917 0.00195312 20.2738 0.00195312 16C0.00195312 11.7262 1.66627 7.70831 4.68827 4.68631C7.71027 1.66431 11.7282 0 16.002 0C20.2757 0 24.2936 1.66431 27.3156 4.68631C30.3376 7.70831 32.002 11.7262 32.002 16C32.002 20.2738 30.3376 24.2917 27.3156 27.3137C24.2936 30.3357 20.2757 32 16.002 32ZM16.002 2.55619C8.58902 2.55619 2.55814 8.587 2.55814 16C2.55814 23.413 8.58902 29.4438 16.002 29.4438C23.4149 29.4438 29.4458 23.413 29.4458 16C29.4458 8.587 23.4149 2.55619 16.002 2.55619Z" fill="#0ACEFA"/>
<path d="M27.3158 4.68644C27.0698 4.44044 26.8165 4.20437 26.5577 3.97656C29.1288 6.897 30.5341 10.6064 30.5341 14.5323C30.5341 18.806 28.8698 22.8239 25.8478 25.8459C22.8258 28.8679 18.8079 30.5322 14.5341 30.5322C10.6083 30.5322 6.89895 29.1269 3.97852 26.5559C4.20633 26.8147 4.44233 27.0679 4.68833 27.3139C7.71045 30.3358 11.7284 32.0001 16.0021 32.0001C20.2759 32.0001 24.2938 30.3358 27.3158 27.3138C30.3378 24.2918 32.0021 20.2739 32.0021 16.0001C32.0021 11.7264 30.3378 7.70844 27.3158 4.68644Z" fill="#09A6EE"/>
<path d="M15.8152 22.4107L10.5807 18.7429C10.5222 18.7019 10.4503 18.7723 10.4899 18.8317L15.7318 26.6938C15.8597 26.8856 16.1415 26.8856 16.2693 26.6938L21.5112 18.8317C21.5508 18.7723 21.4789 18.7019 21.4204 18.7429L16.186 22.4107C16.0746 22.4886 15.9265 22.4886 15.8152 22.4107Z" fill="#B1ABB5"/>
<path d="M22.1988 15.5041L16.2853 4.82763C16.1623 4.60563 15.8431 4.60563 15.7201 4.82763L9.80664 15.5041H22.1988Z" fill="#B1ABB5"/>
<path d="M16.002 15.5041H22.198L16.2845 4.82763C16.223 4.71663 16.1125 4.66113 16.002 4.66113V15.5041Z" fill="#786E79"/>
<path d="M15.816 20.0641L9.9033 15.9211C9.71973 15.7924 9.71973 15.5206 9.9033 15.3919L15.816 11.2489C15.9272 11.1709 16.0754 11.1709 16.1867 11.2489L22.0994 15.3919C22.283 15.5206 22.283 15.7924 22.0994 15.9211L16.1867 20.0641C16.0754 20.1421 15.9272 20.1421 15.816 20.0641Z" fill="#786E79"/>
<path d="M16.1873 20.064L22.1 15.921C22.2836 15.7924 22.2836 15.5205 22.1 15.3919L16.1873 11.2489C16.1317 11.2099 16.0668 11.1904 16.002 11.1904V20.1225C16.0668 20.1225 16.1317 20.103 16.1873 20.064Z" fill="#554E57"/>
<path d="M20.4714 15.0579C20.5672 15.1978 20.5404 15.3986 20.3907 15.5041H22.1959L16.2826 4.82763C16.2211 4.71663 16.1105 4.66113 16 4.66113V6.98495L20.4714 15.0579Z" fill="#554E57"/>
<path d="M16.2707 26.6938L21.5126 18.8317C21.5522 18.7723 21.4803 18.7019 21.4218 18.7429L16.1873 22.4107C16.1317 22.4497 16.0668 22.4692 16.002 22.4692V26.8377C16.1044 26.8377 16.2068 26.7898 16.2707 26.6938Z" fill="#554E57"/>
<path d="M22.1 15.3918L19.744 13.741L20.4734 15.0578C20.5694 15.198 20.5424 15.3993 20.392 15.5047L16.002 18.5807V20.1224C16.0668 20.1224 16.1316 20.1029 16.1873 20.0639L22.1 15.9209C22.2836 15.7923 22.2836 15.5204 22.1 15.3918Z" fill="#453E43"/>
<path d="M21.4218 18.7429L18.6568 20.6803L16.002 24.6623V26.8377C16.1044 26.8377 16.2068 26.7898 16.2707 26.6939L21.5126 18.8318C21.5523 18.7723 21.4803 18.7019 21.4218 18.7429Z" fill="#453E43"/>
</g>
<defs>
<clipPath id="clip0">
<rect width="32" height="32" fill="white" transform="translate(0.00195312)"/>
</clipPath>
</defs>
</svg>
