<svg width="32" height="32" viewBox="0 0 32 32" fill="none" xmlns="http://www.w3.org/2000/svg">
<path d="M16 32C24.8366 32 32 24.8366 32 16C32 7.16344 24.8366 0 16 0C7.16344 0 0 7.16344 0 16C0 24.8366 7.16344 32 16 32Z" fill="#FFE14D"/>
<path d="M32 16C32 7.17756 24.8224 0 16 0V32C24.8224 32 32 24.8224 32 16Z" fill="#FFBB33"/>
<path d="M16 28.1875C9.28 28.1875 3.8125 22.72 3.8125 16C3.8125 9.28 9.28 3.8125 16 3.8125C22.72 3.8125 28.1875 9.28 28.1875 16C28.1875 22.72 22.72 28.1875 16 28.1875Z" fill="#FFBB33"/>
<path d="M28.1875 16C28.1875 9.28 22.72 3.8125 16 3.8125V28.1875C22.72 28.1875 28.1875 22.72 28.1875 16Z" fill="#E68A2E"/>
<path d="M16.9375 15.1293V11.4227C18.0157 11.6873 18.8125 12.381 18.8125 13.1785C18.8125 13.6967 19.2318 14.116 19.75 14.116C20.2682 14.116 20.6875 13.6967 20.6875 13.1785C20.6875 11.3671 19.0749 9.85259 16.9375 9.50434V8.49097C16.9375 7.97278 16.5182 7.55347 16 7.55347C15.4818 7.55347 15.0625 7.97278 15.0625 8.49097V9.50434C12.9251 9.85259 11.3125 11.3671 11.3125 13.1785C11.3125 14.9898 12.9251 16.5043 15.0625 16.8526V20.5592C13.9843 20.2947 13.1875 19.6009 13.1875 18.8035C13.1875 18.2853 12.7682 17.866 12.25 17.866C11.7318 17.866 11.3125 18.2853 11.3125 18.8035C11.3125 20.6148 12.9251 22.1293 15.0625 22.4776V23.5001C15.0625 24.0183 15.4818 24.4376 16 24.4376C16.5182 24.4376 16.9375 24.0183 16.9375 23.5001V22.4776C19.0749 22.1293 20.6875 20.6148 20.6875 18.8035C20.6875 16.9921 19.0749 15.4775 16.9375 15.1293ZM13.1875 13.1785C13.1875 12.381 13.9843 11.6873 15.0625 11.4227V14.9342C13.9843 14.6696 13.1875 13.9758 13.1875 13.1785ZM16.9375 20.5592V17.0477C18.0157 17.3123 18.8125 18.006 18.8125 18.8035C18.8125 19.6009 18.0157 20.2946 16.9375 20.5592Z" fill="#FFE14D"/>
<path d="M16.9375 23.5001V22.4776C19.0749 22.1293 20.6875 20.6148 20.6875 18.8035C20.6875 16.9921 19.0749 15.4776 16.9375 15.1293V11.4227C18.0157 11.6873 18.8125 12.381 18.8125 13.1785C18.8125 13.6967 19.2318 14.116 19.75 14.116C20.2682 14.116 20.6875 13.6967 20.6875 13.1785C20.6875 11.3671 19.0749 9.85259 16.9375 9.50434V8.49097C16.9375 7.97278 16.5182 7.55347 16 7.55347V24.4376C16.5182 24.4376 16.9375 24.0183 16.9375 23.5001ZM16.9375 17.0477C18.0157 17.3122 18.8125 18.006 18.8125 18.8034C18.8125 19.6008 18.0157 20.2946 16.9375 20.5592V17.0477Z" fill="#FFBB33"/>
</svg>
