<svg width="32" height="32" viewBox="0 0 32 32" fill="none" xmlns="http://www.w3.org/2000/svg">
<g clip-path="url(#clip0)">
<path d="M23.717 9.1035C24.4116 8.18044 24.8282 7.03675 24.8282 5.79313C24.8282 2.74594 22.3581 0.275879 19.311 0.275879C16.9225 0.275879 14.895 1.79644 14.127 3.91944L19.311 9.10344H23.717V9.1035Z" fill="#ECF0F1"/>
<path d="M10.4838 0.275879L1.65625 9.10344H19.3114L10.4838 0.275879Z" fill="#24AE5F"/>
<path d="M19.3104 2.48267C17.4819 2.48267 16 3.9646 16 5.79304L19.3104 9.10342C21.1388 9.10342 22.6208 7.62148 22.6208 5.79304C22.6208 3.9646 21.1388 2.48267 19.3104 2.48267Z" fill="#BDC3C7"/>
<path d="M23.7176 9.10335H29.5411C29.7049 8.58085 29.7943 8.02472 29.7943 7.44816C29.7943 4.40097 27.3243 1.93091 24.2771 1.93091C23.9526 1.93091 23.6371 1.96453 23.3281 2.0181C24.2561 3.00566 24.8288 4.33091 24.8288 5.79297C24.8288 7.03716 24.4128 8.18141 23.7176 9.10335Z" fill="#CB9080"/>
<path d="M23.709 9.10339H27.1407C27.4227 8.6162 27.5871 8.05183 27.5871 7.4482C27.5871 5.72238 26.2663 4.3067 24.5807 4.15332C24.7419 4.67138 24.8285 5.22201 24.8285 5.79307C24.8284 7.03939 24.4069 8.18089 23.709 9.10339Z" fill="#7F5B53"/>
<path d="M10.484 3.58618L4.9668 9.10343H16.0013L10.484 3.58618Z" fill="#128D47"/>
<path d="M30.1147 31.7242H1.88525C0.844125 31.7242 0 30.8801 0 29.8389V10.437C0 9.39588 0.844125 8.55176 1.88525 8.55176H30.1153C31.1559 8.55176 32 9.39588 32 10.437V29.8395C32 30.8801 31.1559 31.7242 30.1147 31.7242Z" fill="#805333"/>
<path d="M29.792 16.8275C29.4874 16.8275 29.2402 16.5804 29.2402 16.2758V15.1724C29.2402 14.8678 29.4874 14.6206 29.792 14.6206C30.0965 14.6206 30.3437 14.8678 30.3437 15.1724V16.2758C30.3437 16.5804 30.0965 16.8275 29.792 16.8275Z" fill="#A77657"/>
<path d="M29.792 12.4138C29.4874 12.4138 29.2402 12.1666 29.2402 11.862V11.3103H28.6885C28.3839 11.3103 28.1367 11.0631 28.1367 10.7585C28.1367 10.454 28.3839 10.2068 28.6885 10.2068H29.7919C30.0965 10.2068 30.3437 10.454 30.3437 10.7585V11.862C30.3437 12.1666 30.0965 12.4138 29.792 12.4138Z" fill="#A77657"/>
<path d="M25.3787 11.3103H23.1719C22.8673 11.3103 22.6201 11.0631 22.6201 10.7585C22.6201 10.454 22.8673 10.2068 23.1719 10.2068H25.3787C25.6833 10.2068 25.9305 10.454 25.9305 10.7585C25.9305 11.0631 25.6833 11.3103 25.3787 11.3103ZM19.8615 11.3103H17.6546C17.35 11.3103 17.1029 11.0631 17.1029 10.7585C17.1029 10.454 17.35 10.2068 17.6546 10.2068H19.8615C20.166 10.2068 20.4132 10.454 20.4132 10.7585C20.4132 11.0631 20.166 11.3103 19.8615 11.3103ZM14.3442 11.3103H12.1374C11.8328 11.3103 11.5856 11.0631 11.5856 10.7585C11.5856 10.454 11.8328 10.2068 12.1374 10.2068H14.3442C14.6488 10.2068 14.896 10.454 14.896 10.7585C14.896 11.0631 14.6488 11.3103 14.3442 11.3103ZM8.82698 11.3103H6.62011C6.31555 11.3103 6.06836 11.0631 6.06836 10.7585C6.06836 10.454 6.31555 10.2068 6.62011 10.2068H8.82698C9.13155 10.2068 9.37873 10.454 9.37873 10.7585C9.37873 11.0631 9.13155 11.3103 8.82698 11.3103Z" fill="#A77657"/>
<path d="M2.20605 12.4147C1.90148 12.4147 1.6543 12.1675 1.6543 11.863V10.7595C1.6543 10.455 1.90148 10.2078 2.20605 10.2078H3.30948C3.61405 10.2078 3.86123 10.455 3.86123 10.7595C3.86123 11.0641 3.61405 11.3113 3.30948 11.3113H2.75773V11.863C2.7578 12.1675 2.51061 12.4147 2.20605 12.4147Z" fill="#A77657"/>
<path d="M2.20605 25.1459C1.90148 25.1459 1.6543 24.8988 1.6543 24.5942V22.048C1.6543 21.7434 1.90148 21.4963 2.20605 21.4963C2.51061 21.4963 2.7578 21.7434 2.7578 22.048V24.5942C2.7578 24.8988 2.51061 25.1459 2.20605 25.1459ZM2.20605 18.7796C1.90148 18.7796 1.6543 18.5324 1.6543 18.2278V15.6816C1.6543 15.3771 1.90148 15.1299 2.20605 15.1299C2.51061 15.1299 2.7578 15.3771 2.7578 15.6816V18.2278C2.7578 18.5324 2.51061 18.7796 2.20605 18.7796Z" fill="#A77657"/>
<path d="M3.30955 30.069H2.20605C1.90148 30.069 1.6543 29.8218 1.6543 29.5172V28.4138C1.6543 28.1092 1.90148 27.8621 2.20605 27.8621C2.51061 27.8621 2.7578 28.1092 2.7578 28.4138V28.9656H3.30955C3.61411 28.9656 3.8613 29.2127 3.8613 29.5173C3.86123 29.8219 3.61405 30.069 3.30955 30.069Z" fill="#A77657"/>
<path d="M25.3787 30.0688H23.1719C22.8673 30.0688 22.6201 29.8216 22.6201 29.5171C22.6201 29.2125 22.8673 28.9653 23.1719 28.9653H25.3787C25.6833 28.9653 25.9305 29.2125 25.9305 29.5171C25.9305 29.8217 25.6833 30.0688 25.3787 30.0688ZM19.8615 30.0688H17.6546C17.35 30.0688 17.1029 29.8216 17.1029 29.5171C17.1029 29.2125 17.35 28.9653 17.6546 28.9653H19.8615C20.166 28.9653 20.4132 29.2125 20.4132 29.5171C20.4132 29.8217 20.166 30.0688 19.8615 30.0688ZM14.3442 30.0688H12.1374C11.8328 30.0688 11.5856 29.8216 11.5856 29.5171C11.5856 29.2125 11.8328 28.9653 12.1374 28.9653H14.3442C14.6488 28.9653 14.896 29.2125 14.896 29.5171C14.896 29.8217 14.6488 30.0688 14.3442 30.0688ZM8.82698 30.0688H6.62011C6.31555 30.0688 6.06836 29.8216 6.06836 29.5171C6.06836 29.2125 6.31555 28.9653 6.62011 28.9653H8.82698C9.13155 28.9653 9.37873 29.2125 9.37873 29.5171C9.37873 29.8217 9.13155 30.0688 8.82698 30.0688Z" fill="#A77657"/>
<path d="M29.7919 30.0688H28.6885C28.3839 30.0688 28.1367 29.8216 28.1367 29.5171C28.1367 29.2125 28.3839 28.9653 28.6885 28.9653H29.2402V28.4136C29.2402 28.109 29.4874 27.8618 29.792 27.8618C30.0965 27.8618 30.3437 28.109 30.3437 28.4136V29.517C30.3436 29.8217 30.0964 30.0688 29.7919 30.0688Z" fill="#A77657"/>
<path d="M29.792 25.6552C29.4874 25.6552 29.2402 25.408 29.2402 25.1034V24C29.2402 23.6954 29.4874 23.4482 29.792 23.4482C30.0965 23.4482 30.3437 23.6954 30.3437 24V25.1034C30.3437 25.408 30.0965 25.6552 29.792 25.6552Z" fill="#A77657"/>
<path d="M32.0013 24H24.8289C22.6959 24 20.9668 22.2709 20.9668 20.1379C20.9668 18.005 22.6959 16.2759 24.8289 16.2759H32.0013V24Z" fill="#5F381F"/>
<path d="M24.8271 21.793C25.7412 21.793 26.4823 21.052 26.4823 20.1379C26.4823 19.2237 25.7412 18.4827 24.8271 18.4827C23.9129 18.4827 23.1719 19.2237 23.1719 20.1379C23.1719 21.052 23.9129 21.793 24.8271 21.793Z" fill="#ECF0F1"/>
<path d="M29.7939 21.793C29.4894 21.793 29.2422 21.5459 29.2422 21.2413V19.0344C29.2422 18.7299 29.4894 18.4827 29.7939 18.4827C30.0985 18.4827 30.3457 18.7299 30.3457 19.0344V21.2413C30.3456 21.5459 30.0984 21.793 29.7939 21.793Z" fill="#805333"/>
</g>
<defs>
<clipPath id="clip0">
<rect width="32" height="32" fill="white"/>
</clipPath>
</defs>
</svg>
